<?xml version="1.0" encoding="UTF-8"?>
<svg width="32" height="32" viewBox="0 0 32 32" xmlns="http://www.w3.org/2000/svg">
    <path id="rect143" fill="#4c00e6" stroke="none" d="M 4.106667 1.936003 L 27.893335 1.936003 C 29.158436 1.936003 30.184 2.961565 30.184 4.226667 L 30.184 28.013334 C 30.184 29.278435 29.158436 30.303999 27.893335 30.303999 L 4.106667 30.303999 C 2.841567 30.303999 1.815999 29.278435 1.815999 28.013334 L 1.815999 4.226667 C 1.815999 2.961565 2.841567 1.936003 4.106667 1.936003 Z"/>
    <g id="Group">
        <g id="path41">
            <g id="g1">
                <path id="Path" fill="#ffffff" stroke="none" d="M 9.848001 10.914665 C 9.101333 11.597334 8.538666 18.312 11.365332 21.962666 C 12.442668 23.354668 14.335999 24.304001 16.426668 24.304001 C 18.517334 24.304001 20.394665 23.424 21.352001 21.962666 C 23.781332 18.253332 22.647999 11.464001 21.893335 10.778666 C 20.842669 9.821333 18.362667 7.930664 15.890666 7.933332 C 13.418669 7.933332 10.880001 9.970667 9.848001 10.914665 L 9.848001 10.914665 Z"/>
                <path id="path1" fill="#000000" stroke="none" d="M 16.426668 24.896 C 14.242667 24.896 12.125334 23.911999 10.898665 22.325333 C 8.032001 18.621334 8.317334 11.511999 9.450667 10.477331 L 9.450667 10.477331 C 10.482666 9.535999 13.176001 7.341333 15.893335 7.341333 L 15.893335 7.341333 C 18.781332 7.341333 21.519999 9.637333 22.290667 10.341333 C 23.445333 11.394665 24.274666 18.573332 21.845333 22.288 C 20.776001 23.919998 18.752003 24.896 16.426668 24.896 Z M 10.258667 11.338667 C 9.768 12.018669 9.184001 18.181332 11.831999 21.602665 C 12.839998 22.903999 14.6 23.714664 16.426668 23.714664 C 18.352001 23.714664 20.007999 22.938667 20.856001 21.642668 C 23.112 18.197334 22.007999 11.829334 21.482666 11.205334 C 21 10.768002 18.415998 8.525333 15.893335 8.525333 L 15.893335 8.525333 C 13.538668 8.525333 11.005335 10.664001 10.261333 11.341333 Z"/>
            </g>
            <g id="g2">
                <path id="path2" fill="#000000" stroke="none" d="M 16.426668 24.525333 C 14.354667 24.525333 12.349333 23.594666 11.192 22.098665 C 8.36 18.439999 8.797333 11.576 9.698668 10.752003 L 9.698668 10.752003 C 10.698666 9.837334 13.301334 7.714664 15.890666 7.712 L 15.890666 7.712 C 18.645332 7.712 21.293335 9.933332 22.039999 10.615999 C 22.965332 11.461332 23.935999 18.413334 21.533333 22.085335 C 20.533333 23.613335 18.623999 24.525333 16.424 24.525333 Z M 9.848001 10.914665 L 9.997333 11.077332 C 9.744 11.309334 9.357332 12.92 9.488001 15.314665 C 9.570666 16.864002 9.949332 19.770666 11.541333 21.829334 C 12.618669 23.221333 14.490665 24.085335 16.426668 24.085335 C 18.477331 24.085335 20.247997 23.247997 21.165333 21.845333 C 23.605335 18.117334 22.325335 11.474667 21.743998 10.943998 C 18.909334 8.357332 16.549334 8.154667 15.890666 8.154667 L 15.890666 8.154667 C 13.458667 8.154667 10.957333 10.200001 9.997333 11.077332 L 9.848001 10.914665 Z"/>
                <path id="path3" fill="#000000" stroke="none" d="M 16.426668 25.117334 C 14.176001 25.117334 11.992001 24.101334 10.722669 22.461332 C 7.728001 18.591999 8.096 11.415998 9.298667 10.314665 C 10.349333 9.354668 13.093335 7.122663 15.888 7.119999 C 18.856001 7.119999 21.650667 9.461332 22.437334 10.178667 C 23.661333 11.296 24.565332 18.530668 22.026669 22.408001 C 20.917334 24.104 18.823999 25.114664 16.424 25.114664 Z M 10.429334 11.485334 C 10.288 11.752003 9.957333 13.093334 10.077333 15.285336 C 10.157332 16.768002 10.514665 19.541332 12.007999 21.469332 C 12.976001 22.719999 14.669332 23.496 16.426668 23.496 C 18.274666 23.496 19.861332 22.757332 20.672001 21.522669 C 22.962667 18.023998 21.717335 11.917334 21.314665 11.346668 C 18.669333 8.938663 16.496 8.749332 15.893335 8.749332 C 13.693335 8.749332 11.365332 10.639997 10.429334 11.488001 Z"/>
            </g>
        </g>
        <g id="path6">
            <path id="path4" fill="#ffffff" stroke="none" d="M 21.874666 20.941334 C 22.141333 20.992001 22.354668 21.031998 22.431999 21.056002 C 23.994665 21.533333 28.365332 16.029333 28.296 14.626669 C 28.247997 13.68 26.917334 12.498665 25.981331 11.280001 C 25.093334 10.119999 24.613335 8.903999 23.997335 8.650667 C 23.839998 8.586666 23.682667 8.554667 23.533333 8.552002 C 22.472002 8.522665 21.605335 9.789335 21.605335 9.789335 L 21.570667 10.277332 L 21.570667 10.277332 C 20.394665 9.258667 18.143999 7.669336 15.890666 7.669336 C 13.792001 7.669336 11.656002 9.157331 10.423999 10.194666 L 10.394666 9.789335 C 10.394666 9.789335 9.528001 8.522665 8.466666 8.552002 C 8.314667 8.557333 8.16 8.586666 8.002667 8.650667 C 7.501333 8.855997 7.128001 9.888 6.381333 10.762667 C 5.245333 12.093334 3.762667 13.509335 3.706667 14.626669 C 3.637333 16.029333 8.010667 21.533333 9.570666 21.056002 C 9.733334 21.005335 10.157332 20.917334 10.658667 20.805334 L 10.658667 20.805334"/>
            <path id="path5" fill="#000000" stroke="none" d="M 22.639997 21.6 C 22.514666 21.6 22.394665 21.581331 22.280001 21.546667 C 22.213335 21.528 21.898664 21.469332 21.778666 21.445332 C 21.498665 21.392 21.314665 21.125334 21.368002 20.845333 C 21.421333 20.565332 21.690666 20.381332 21.968 20.431999 C 22.343998 20.501335 22.493336 20.533333 22.581331 20.560001 C 22.701334 20.597336 23.096001 20.511999 23.805334 19.960003 C 25.682667 18.498665 27.816 15.373331 27.781332 14.647999 C 27.757332 14.149332 27.090666 13.38133 26.447998 12.639997 C 26.152002 12.298666 25.847998 11.949333 25.573332 11.589334 C 25.221334 11.130669 24.935999 10.672001 24.685335 10.266666 C 24.365332 9.752003 24.034668 9.218668 23.805334 9.125334 C 23.712 9.088001 23.61867 9.066668 23.522669 9.063997 C 22.962667 9.047998 22.370667 9.639997 22.112 9.973331 L 22.013334 11.335999 L 21.237333 10.664001 C 20.376001 9.917334 18.130669 8.181332 15.896 8.181332 L 15.896 8.181332 C 13.912 8.181332 11.826669 9.688 10.760001 10.586666 L 9.989333 11.237333 L 9.896 9.973331 C 9.64 9.645332 9.066667 9.063997 8.506667 9.063997 C 8.498668 9.063997 8.490665 9.063997 8.485333 9.063997 C 8.389333 9.066668 8.296 9.088001 8.2 9.125334 C 8.063999 9.181332 7.797333 9.605335 7.602667 9.917334 C 7.373334 10.282665 7.114667 10.698666 6.773334 11.096001 C 6.554667 11.354668 6.319999 11.615999 6.093333 11.869331 C 5.232001 12.834667 4.258667 13.927999 4.221334 14.647999 C 4.186666 15.370667 6.319999 18.496 8.197332 19.957333 C 8.906667 20.509335 9.301332 20.594666 9.421334 20.557331 C 9.576001 20.509335 9.880001 20.442669 10.301334 20.352001 L 10.549333 20.298664 C 10.826669 20.237333 11.101335 20.413334 11.162667 20.690666 C 11.223999 20.968002 11.047998 21.242668 10.770666 21.304001 L 10.52 21.360001 C 10.168001 21.437332 9.837333 21.509335 9.722667 21.543999 C 9.16 21.717335 8.453333 21.464001 7.565334 20.770666 C 5.682666 19.304001 3.128001 15.92 3.194668 14.597334 C 3.248 13.511999 4.258667 12.38133 5.325334 11.184 C 5.549333 10.933332 5.778666 10.674665 5.992 10.426668 C 6.282666 10.085335 6.519999 9.704 6.730666 9.368002 C 7.071999 8.823999 7.367999 8.352001 7.808 8.170666 C 8.016 8.085335 8.234666 8.039999 8.453333 8.032 C 9.530666 8.002668 10.370667 8.911999 10.690665 9.317333 C 12.093335 8.239998 13.984 7.152002 15.893335 7.149332 L 15.893335 7.149332 C 18.021334 7.149332 20.085335 8.447998 21.274666 9.365332 C 21.562666 8.98933 22.426668 8 23.549334 8.032 C 23.770666 8.037333 23.986666 8.085335 24.194666 8.170666 C 24.730669 8.392 25.096001 8.978666 25.560001 9.722668 C 25.799999 10.109335 26.072001 10.546667 26.392 10.962667 C 26.647999 11.296 26.943998 11.637333 27.229334 11.965332 C 28.021334 12.880001 28.770666 13.741333 28.813334 14.597334 C 28.880001 15.92 26.325335 19.304001 24.442667 20.770666 C 23.733334 21.322668 23.138668 21.597336 22.642668 21.597336 Z"/>
        </g>
        <g id="path41-2">
            <path id="path7" fill="#ffffff" stroke="none" d="M 9.848001 10.914665 C 9.101333 11.597334 8.538666 18.312 11.365332 21.962666 C 12.442668 23.354668 14.335999 24.304001 16.426668 24.304001 C 18.517334 24.304001 20.394665 23.424 21.352001 21.962666 C 23.781332 18.253332 22.647999 11.464001 21.893335 10.778666 C 20.842669 9.821333 18.362667 7.930664 15.890666 7.933332 C 13.418669 7.933332 10.880001 9.970667 9.848001 10.914665 L 9.848001 10.914665 Z"/>
            <path id="path8" fill="#000000" stroke="none" d="M 16.426668 24.525333 C 14.354667 24.525333 12.349333 23.594666 11.192 22.098665 C 8.36 18.439999 8.797333 11.576 9.698668 10.752003 L 9.698668 10.752003 C 10.698666 9.837334 13.301334 7.714664 15.890666 7.712 L 15.890666 7.712 C 18.645332 7.712 21.293335 9.933332 22.039999 10.615999 C 22.965332 11.461332 23.935999 18.413334 21.533333 22.085335 C 20.533333 23.613335 18.623999 24.525333 16.424 24.525333 Z M 9.848001 10.914665 L 9.997333 11.077332 C 9.744 11.309334 9.357332 12.92 9.488001 15.314665 C 9.570666 16.864002 9.949332 19.770666 11.541333 21.829334 C 12.618669 23.221333 14.490665 24.085335 16.426668 24.085335 C 18.477331 24.085335 20.247997 23.247997 21.165333 21.845333 C 23.605335 18.117334 22.325335 11.474667 21.743998 10.943998 C 18.909334 8.357332 16.549334 8.154667 15.890666 8.154667 L 15.890666 8.154667 C 13.458667 8.154667 10.957333 10.200001 9.997333 11.077332 L 9.848001 10.914665 Z"/>
        </g>
        <g id="ellipse43">
            <path id="path9" fill="#000000" stroke="none" d="M 13.226668 18.058666 C 13.226668 18.705208 12.857747 19.229334 12.402665 19.229334 C 11.947583 19.229334 11.578666 18.705208 11.578666 18.058666 C 11.578666 17.412125 11.947583 16.888 12.402665 16.888 C 12.857747 16.888 13.226668 17.412125 13.226668 18.058666 Z"/>
            <path id="path10" fill="#000000" stroke="none" d="M 12.402665 19.333332 C 11.890666 19.333332 11.474667 18.762667 11.474667 18.058666 C 11.474667 17.354668 11.890666 16.784 12.402665 16.784 C 12.914664 16.784 13.330668 17.354668 13.330668 18.058666 C 13.330668 18.762667 12.914664 19.333332 12.402665 19.333332 Z M 12.402665 16.992001 C 12.005335 16.992001 11.682666 17.472 11.682666 18.058666 C 11.682666 18.645332 12.005335 19.125334 12.402665 19.125334 C 12.8 19.125334 13.122668 18.645332 13.122668 18.058666 C 13.122668 17.472 12.8 16.992001 12.402665 16.992001 Z"/>
        </g>
        <g id="ellipse44">
            <path id="path11" fill="#000000" stroke="none" d="M 20.925333 18.058666 C 20.925333 18.705208 20.556417 19.229334 20.101336 19.229334 C 19.646252 19.229334 19.277332 18.705208 19.277332 18.058666 C 19.277332 17.412125 19.646252 16.888 20.101336 16.888 C 20.556417 16.888 20.925333 17.412125 20.925333 18.058666 Z"/>
            <path id="path12" fill="#000000" stroke="none" d="M 20.101336 19.333332 C 19.589334 19.333332 19.173332 18.762667 19.173332 18.058666 C 19.173332 17.354668 19.589334 16.784 20.101336 16.784 C 20.613335 16.784 21.029333 17.354668 21.029333 18.058666 C 21.029333 18.762667 20.613335 19.333332 20.101336 19.333332 Z M 20.101336 16.992001 C 19.704 16.992001 19.38133 17.472 19.38133 18.058666 C 19.38133 18.645332 19.704 19.125334 20.101336 19.125334 C 20.498665 19.125334 20.821333 18.645332 20.821333 18.058666 C 20.821333 17.472 20.498665 16.992001 20.101336 16.992001 Z"/>
        </g>
        <g id="path44">
            <path id="path13" fill="#000000" stroke="none" d="M 15.826669 19.528 L 16.677332 19.528 C 17.442667 19.528 17.277332 19.938667 17.277332 20.445332 C 17.277332 20.952002 16.927999 21.362667 16.493336 21.362667 L 16.010664 21.362667 C 15.576001 21.362667 15.226668 20.952002 15.226668 20.445332 C 15.226668 19.938667 15.061332 19.528 15.826669 19.528 Z"/>
        </g>
        <g id="path45">
            <path id="path14" fill="#000000" stroke="none" d="M 22.365332 20.277332 L 18.925333 20.277332 C 18.218668 20.277332 17.669333 19.746668 17.554667 18.954666 L 17.170666 16.290665 C 17.125334 15.978666 17.221334 15.666666 17.442667 15.413334 C 17.709333 15.104 18.122669 14.92 18.543999 14.92 L 23.138668 14.92 C 23.597334 14.92 24.077332 15.152002 24.338667 15.498665 C 24.525333 15.749332 24.586666 16.037334 24.506664 16.314665 L 23.735998 18.978666 C 23.424 20.053333 22.821333 20.280001 22.370667 20.280001 Z M 18.538668 15.256002 C 18.218668 15.256002 17.896 15.4 17.693335 15.631998 C 17.584002 15.757332 17.461332 15.965332 17.501335 16.239998 L 17.885336 18.903999 C 17.960001 19.418669 18.309334 19.935999 18.92 19.935999 L 22.360003 19.935999 C 22.847998 19.935999 23.197334 19.581331 23.4 18.880001 L 24.170666 16.216 C 24.234669 15.994665 24.143999 15.810665 24.058666 15.696001 C 23.864002 15.434668 23.480001 15.253332 23.130669 15.253332 L 18.535999 15.253332 Z"/>
        </g>
        <g id="path46">
            <path id="path15" fill="#000000" stroke="none" d="M 13.397335 20.277332 L 9.957333 20.277332 C 9.506667 20.277332 8.901333 20.050667 8.592 18.976002 L 7.821334 16.312 C 7.741333 16.034668 7.8 15.743998 7.989333 15.496 C 8.248 15.149332 8.730666 14.917334 9.189333 14.917334 L 13.784 14.917334 C 14.205335 14.917334 14.615999 15.101336 14.885335 15.410666 C 15.104 15.664001 15.2 15.976002 15.157332 16.288 L 14.773332 18.952002 C 14.658667 19.743999 14.109334 20.274666 13.402665 20.274666 Z M 9.186666 15.256002 C 8.834666 15.256002 8.453333 15.437334 8.258667 15.698666 C 8.173334 15.813334 8.082666 15.997335 8.146667 16.21867 L 8.917334 18.882666 C 9.119999 19.584 9.469334 19.938667 9.957333 19.938667 L 13.397335 19.938667 C 14.010665 19.938667 14.360002 19.418669 14.431998 18.906666 L 14.815999 16.242668 C 14.856002 15.968 14.733334 15.760002 14.623999 15.634668 C 14.423999 15.402666 14.098665 15.258667 13.778666 15.258667 L 9.184001 15.258667 Z"/>
        </g>
        <g id="path47">
            <path id="path16" fill="#000000" stroke="none" d="M 14.797335 17.735998 L 14.712 17.496 C 14.741333 17.485336 15.442668 17.237333 16.205334 17.237333 C 16.968 17.237333 17.669333 17.485336 17.698666 17.496 L 17.613335 17.735998 C 17.613335 17.735998 16.922668 17.493336 16.205334 17.493336 C 15.488001 17.493336 14.805334 17.735998 14.797335 17.735998 Z"/>
        </g>
        <g id="path48">
            <path id="path17" fill="#000000" stroke="none" d="M 20.160002 13.941334 C 19.527998 13.941334 19.234669 13.725334 19.101336 13.522669 C 19.021334 13.4 18.968 13.223999 19.026669 13.125334 L 19.026669 13.125334 C 19.154667 12.906666 19.314665 12.762667 19.504 12.698666 C 19.701334 12.629333 19.938667 12.677332 20.133333 12.826668 C 20.322668 12.962667 20.717335 13.410666 20.802666 13.610664 C 20.826668 13.669333 20.823999 13.741333 20.789335 13.799999 C 20.757332 13.858667 20.698666 13.896 20.634668 13.906666 C 20.458668 13.930668 20.301334 13.941334 20.162666 13.941334 Z M 20.488001 13.743998 C 20.488001 13.743998 20.488001 13.743998 20.488001 13.743998 C 20.488001 13.743998 20.488001 13.743998 20.488001 13.743998 Z M 19.346668 13.256002 C 19.357332 13.293335 19.386665 13.357332 19.464001 13.424 C 19.592001 13.530668 19.856001 13.639997 20.392 13.594666 C 20.264002 13.426668 20.053333 13.189335 19.930668 13.104 C 19.845333 13.037333 19.719999 12.984001 19.615999 13.021334 C 19.517334 13.056002 19.426668 13.135998 19.346668 13.256002 Z"/>
        </g>
        <g id="path48-2">
            <path id="path18" fill="#000000" stroke="none" d="M 12.346667 13.941334 C 12.205335 13.941334 12.050668 13.930668 11.874666 13.906666 L 11.874666 13.906666 C 11.808 13.898664 11.752002 13.858667 11.719999 13.802666 C 11.688001 13.743998 11.682666 13.674665 11.706665 13.613335 C 11.789335 13.410666 12.186666 12.965332 12.378666 12.823999 C 12.570666 12.674665 12.808 12.626669 13.005335 12.698666 C 13.192 12.765331 13.352002 12.909334 13.48 13.125334 C 13.538668 13.223999 13.485335 13.4 13.405334 13.522669 C 13.272001 13.725334 12.978666 13.941334 12.346667 13.941334 Z M 12.117334 13.592001 C 12.656002 13.637333 12.917334 13.527998 13.045333 13.421333 C 13.122668 13.357332 13.152002 13.290667 13.162667 13.253332 C 13.082666 13.130669 12.992001 13.053333 12.893335 13.018669 C 12.786666 12.981331 12.664001 13.034668 12.581331 13.096001 C 12.456002 13.184 12.242667 13.421333 12.117334 13.592001 Z M 11.919999 13.570667 L 11.919999 13.570667 L 11.919999 13.570667 Z"/>
        </g>
        <g id="path50">
            <path id="path19" fill="#000000" stroke="none" d="M 16.266666 23.210665 C 16.266666 23.210665 16.256002 23.210665 16.250668 23.210665 C 14.914664 23.200001 14.216 21.880001 14.186666 21.823999 L 13.792001 21.064001 L 14.429334 21.637333 C 14.429334 21.637333 14.874666 22.031998 15.389335 22.042667 L 15.389335 22.042667 C 15.389335 22.042667 15.394666 22.042667 15.397335 22.042667 C 15.853333 22.042667 16.098665 21.360001 16.101336 21.352001 L 16.247997 20.935999 L 16.394665 21.352001 C 16.394665 21.352001 16.645332 22.042667 17.098665 22.042667 C 17.101336 22.042667 17.104 22.042667 17.106665 22.042667 C 17.621334 22.031998 18.061333 21.639999 18.066668 21.637333 L 18.693335 21.074665 L 18.312 21.823999 C 18.282665 21.880001 17.589334 23.210665 16.261332 23.210665 Z M 14.906665 22.264002 C 15.210665 22.573332 15.664001 22.893335 16.253332 22.898666 C 16.845333 22.898666 17.306665 22.576 17.608 22.261333 C 17.458668 22.314665 17.293335 22.352001 17.119999 22.354668 C 16.698666 22.368 16.407999 22.026669 16.253332 21.762667 C 16.096001 22.026669 15.810665 22.368 15.386666 22.354668 C 15.216 22.352001 15.053332 22.314665 14.909334 22.266666 Z"/>
        </g>
    </g>
</svg>
